<mxfile host="app.diagrams.net" modified="2023-10-16T20:47:26.257Z" agent="Mozilla/5.0 (Windows NT 10.0; Win64; x64) AppleWebKit/537.36 (KHTML, like Gecko) Chrome/116.0.0.0 Safari/537.36 OPR/102.0.0.0" version="22.0.4" etag="VvmWuzPXlFbP1cLz3IuJ" type="github">
  <diagram name="Страница — 1" id="FJHrUvb5DwrBu58WIU6A">
    <mxGraphModel>
      <root>
        <mxCell id="0" />
        <mxCell id="1" parent="0" />
      </root>
    </mxGraphModel>
  </diagram>
</mxfile>
